<svg xmlns="http://www.w3.org/2000/svg" shape-rendering="geometricPrecision" text-rendering="geometricPrecision" image-rendering="optimizeQuality" fill-rule="evenodd" clip-rule="evenodd" viewBox="0 0 512 512.01"><path d="M276.24.81c70.44 5.6 131.97 39.23 174.49 89.08 42.53 49.88 66.05 115.95 60.46 186.36-5.59 70.44-39.23 131.97-89.07 174.48-49.62 42.32-115.26 65.8-185.25 60.55l-2.33-.19c-69.93-5.87-131-39.41-173.27-88.96C18.96 372.51-4.53 306.88.73 236.89l.18-2.33c5.88-69.93 39.41-131.01 88.97-173.28C139.76 18.74 205.83-4.77 276.24.81zM243.9 333.86c2.08-.55 4.47-1.2 6.97-1.55 13.88-1.96 16.94-15.01 7.63-26.54 12.75-15.74 3.22-22.8-10.96-32.52-9.01-6.21-6.3-12.12 1.76-15.58 17.09-5.66 23.04-11.79 22.97-20.64-.2-24.1-42.73-42.15-52.24-68-.79-2.11-1.43-4.32-1.92-6.65-1.67-7.92-1.01-12.38 0-17.42 1.56-7.71-4.99-19 2.34-21.95 33.66-13.6 28.26-56.98 13.67-76.31 12.59-1.3 25.48-1.48 38.56-.44 57.93 4.6 108.53 32.25 143.47 73.22 34.9 40.92 54.19 95.25 49.59 153.21-4.6 57.92-32.24 108.52-73.21 143.46-5.38 4.59-11 8.91-16.83 12.94l18.71-35.97 7.64-43.07c3.93-22.14-12.88-33.39-27.21-15.39 10.18-27.23-11.97-36.37-25.52-22.03 9.92-26.05-14.28-34.48-26.36-18.22l6.15-56.43c5.76-25.63-20.64-27.36-24.36-10.59l-25.56 132.48c-4.49 33.91-2.2 48.28 1.45 82.23l-5.45 23.46a212.006 212.006 0 0 1-35.92.19c-33.73-2.69-64.98-13.18-92.08-29.57.89-12.55 2.21-28.2 8.22-34.91 17.35-19.38 73.64 9.06 86.23-24.43 3.51-9.36.26-21.43-1.5-30.88-1.06-5.69-1.17-9.74 3.76-12.1z"/></svg>